<svg width="38" height="51" viewBox="0 0 38 51" fill="none" xmlns="http://www.w3.org/2000/svg">
<path d="M19 27C3.2964 27 0 34.6133 0 41C0 44.085 0.7412 46.3042 2.2666 47.7852C4.9292 50.3706 9.5054 50.2352 14.8057 50.0811C17.4957 50.002 20.5039 50.002 23.1943 50.0811C24.4268 50.1172 25.6191 50.1523 26.7578 50.1523C30.5178 50.1523 33.6895 49.77 35.7334 47.7852C37.2588 46.3042 38 44.085 38 41C38 34.6133 34.7036 27 19 27ZM34.34 46.35C32.2839 48.3466 28.0983 48.2235 23.2531 48.0819C21.8892 48.0415 20.4648 48 19 48C17.5352 48 16.1108 48.0415 14.7466 48.082C9.9028 48.2251 5.7166 48.3472 3.6597 46.3501C2.543 45.2656 2 43.5156 2 41C2 32.9253 7.5605 29 19 29C30.4395 29 36 32.9253 36 41C36 43.5156 35.457 45.2656 34.34 46.35Z" fill="#100F0D"/>
<path d="M6.99999 18.9999C7.69055 18.9933 8.37219 18.8432 9.00169 18.5592C9.8737 20.4796 11.2803 22.1083 13.0534 23.2504C14.8264 24.3926 16.8909 25 19 25C21.1091 25 23.1736 24.3926 24.9466 23.2504C26.7197 22.1083 28.1263 20.4796 28.9983 18.5592C29.6346 18.8404 30.3227 18.9854 31.0183 18.9848C31.714 18.9842 32.4018 18.838 33.0376 18.5557C33.6734 18.2734 34.2431 17.8611 34.71 17.3455C35.177 16.8299 35.5309 16.2222 35.749 15.5616C35.967 14.901 36.0445 14.2021 35.9763 13.5098C35.9082 12.8175 35.6959 12.1471 35.3532 11.5418C35.0105 10.9364 34.5449 10.4094 33.9863 9.99475C33.4278 9.58007 32.7886 9.28686 32.11 9.13394C31.1203 6.45401 29.3331 4.14176 26.9891 2.50864C24.645 0.875524 21.8568 0 19 0C16.1432 0 13.3549 0.875524 11.0109 2.50864C8.6669 4.14176 6.87968 6.45401 5.88999 9.13394C4.69158 9.40584 3.63546 10.11 2.92362 11.1117C2.21178 12.1134 1.89418 13.3423 2.03157 14.5635C2.16896 15.7846 2.7517 16.9123 3.66832 17.7308C4.58495 18.5493 5.77112 19.0011 6.99999 18.9999ZM19 22.9999C17.22 22.9999 15.4799 22.4721 13.9999 21.4832C12.5198 20.4942 11.3663 19.0886 10.6851 17.4441C10.0039 15.7996 9.82566 13.99 10.1729 12.2441C10.5202 10.4983 11.3774 8.89466 12.636 7.63598C13.8947 6.37731 15.4983 5.52014 17.2442 5.17288C18.99 4.82561 20.7996 5.00384 22.4441 5.68503C24.0887 6.36622 25.4943 7.51977 26.4832 8.99981C27.4722 10.4799 28 12.2199 28 13.9999C27.9973 16.3861 27.0483 18.6737 25.361 20.361C23.6738 22.0482 21.3861 22.9973 19 22.9999ZM34 13.9999C33.9991 14.7953 33.6828 15.5579 33.1203 16.1203C32.5579 16.6827 31.7954 16.9991 31 16.9999C30.5331 16.9984 30.0731 16.8863 29.6578 16.6729C30.1141 14.9201 30.1141 13.0797 29.6578 11.3269C30.0731 11.1136 30.5331 11.0015 31 10.9999C31.7954 11.0008 32.5579 11.3172 33.1203 11.8796C33.6828 12.442 33.9991 13.2046 34 13.9999ZM19 1.99994C21.3205 1.99566 23.5921 2.66733 25.5371 3.9329C27.4822 5.19847 29.0165 7.00314 29.9527 9.12644C29.6248 9.19897 29.3051 9.30423 28.9983 9.44064C28.1263 7.52026 26.7197 5.89163 24.9466 4.74945C23.1736 3.60728 21.1091 2.99988 19 2.99988C16.8909 2.99988 14.8264 3.60728 13.0534 4.74945C11.2803 5.89163 9.8737 7.52026 9.00169 9.44064C8.69488 9.30423 8.37514 9.19897 8.04729 9.12644C8.98349 7.00314 10.5178 5.19847 12.4629 3.9329C14.4079 2.66733 16.6795 1.99566 19 1.99994ZM6.99999 10.9999C7.46693 11.0015 7.92686 11.1136 8.34219 11.3269C7.88592 13.0797 7.88592 14.9201 8.34219 16.6729C7.92686 16.8863 7.46693 16.9984 6.99999 16.9999C6.20434 16.9999 5.44128 16.6839 4.87867 16.1213C4.31606 15.5587 3.99999 14.7956 3.99999 13.9999C3.99999 13.2043 4.31606 12.4412 4.87867 11.8786C5.44128 11.316 6.20434 10.9999 6.99999 10.9999Z" fill="#100F0D"/>
</svg>
