<svg width="48" height="34" viewBox="0 0 48 34" fill="none" xmlns="http://www.w3.org/2000/svg">
<path d="M47.4174 16.4343C47.3353 16.3373 47.2331 16.2593 47.1178 16.2059C47.0026 16.1525 46.877 16.1249 46.75 16.125H39.9075L42.3627 1.39359C42.3835 1.26829 42.3768 1.13996 42.3431 1.01751C42.3093 0.895063 42.2493 0.781428 42.1672 0.684502C42.0851 0.587577 41.9829 0.509685 41.8677 0.456238C41.7525 0.40279 41.627 0.375069 41.5 0.375H25.75C25.5428 0.374924 25.3423 0.448409 25.1843 0.58236C25.0262 0.71631 24.9209 0.902025 24.887 1.10641L22.3839 16.125H15.25C15.0428 16.1249 14.8423 16.1984 14.6843 16.3324C14.5262 16.4663 14.4209 16.652 14.387 16.8564L11.762 32.6064C11.7411 32.7317 11.7478 32.8601 11.7816 32.9826C11.8154 33.105 11.8754 33.2187 11.9575 33.3156C12.0397 33.4126 12.1419 33.4904 12.2572 33.5439C12.3724 33.5973 12.498 33.625 12.625 33.625H44.125C44.3322 33.6251 44.5327 33.5516 44.6907 33.4177C44.8488 33.2837 44.9541 33.098 44.988 32.8936L47.613 17.1436C47.6341 17.0182 47.6275 16.8898 47.5937 16.7673C47.5599 16.6448 47.4997 16.5311 47.4174 16.4343ZM26.4909 2.125H40.4669L38.1341 16.125H24.1581L26.4909 2.125ZM15.9909 17.875H29.9669L28.8005 24.875L27.6339 31.875H13.6581L15.9909 17.875ZM43.3841 31.875H29.4081L30.5745 24.875L31.7411 17.875H45.7169L43.3841 31.875Z" fill="#100F0D"/>
<path d="M36.25 6.5C36.25 6.26794 36.1578 6.04538 35.9937 5.88128C35.8296 5.71719 35.6071 5.625 35.375 5.625H30.125C29.8929 5.625 29.6704 5.71719 29.5063 5.88128C29.3422 6.04538 29.25 6.26794 29.25 6.5C29.25 6.73206 29.3422 6.95462 29.5063 7.11872C29.6704 7.28281 29.8929 7.375 30.125 7.375H35.375C35.6071 7.375 35.8296 7.28281 35.9937 7.11872C36.1578 6.95462 36.25 6.73206 36.25 6.5Z" fill="#100F0D"/>
<path d="M24.875 21.375H19.625C19.3929 21.375 19.1704 21.4672 19.0063 21.6313C18.8422 21.7954 18.75 22.0179 18.75 22.25C18.75 22.4821 18.8422 22.7046 19.0063 22.8687C19.1704 23.0328 19.3929 23.125 19.625 23.125H24.875C25.1071 23.125 25.3296 23.0328 25.4937 22.8687C25.6578 22.7046 25.75 22.4821 25.75 22.25C25.75 22.0179 25.6578 21.7954 25.4937 21.6313C25.3296 21.4672 25.1071 21.375 24.875 21.375Z" fill="#100F0D"/>
<path d="M34.5 22.25C34.5 22.4821 34.5922 22.7046 34.7563 22.8687C34.9204 23.0328 35.1429 23.125 35.375 23.125H40.625C40.8571 23.125 41.0796 23.0328 41.2437 22.8687C41.4078 22.7046 41.5 22.4821 41.5 22.25C41.5 22.0179 41.4078 21.7954 41.2437 21.6313C41.0796 21.4672 40.8571 21.375 40.625 21.375H35.375C35.1429 21.375 34.9204 21.4672 34.7563 21.6313C34.5922 21.7954 34.5 22.0179 34.5 22.25Z" fill="#100F0D"/>
<path d="M12.625 17C12.625 16.7679 12.5328 16.5454 12.3687 16.3813C12.2046 16.2172 11.9821 16.125 11.75 16.125H1.25C1.01794 16.125 0.795376 16.2172 0.631282 16.3813C0.467187 16.5454 0.375 16.7679 0.375 17C0.375 17.2321 0.467187 17.4546 0.631282 17.6187C0.795376 17.7828 1.01794 17.875 1.25 17.875H11.75C11.9821 17.875 12.2046 17.7828 12.3687 17.6187C12.5328 17.4546 12.625 17.2321 12.625 17Z" fill="#100F0D"/>
<path d="M1.25 10H18.75C18.9821 10 19.2046 9.90781 19.3687 9.74372C19.5328 9.57962 19.625 9.35706 19.625 9.125C19.625 8.89294 19.5328 8.67038 19.3687 8.50628C19.2046 8.34219 18.9821 8.25 18.75 8.25H1.25C1.01794 8.25 0.795376 8.34219 0.631282 8.50628C0.467187 8.67038 0.375 8.89294 0.375 9.125C0.375 9.35706 0.467187 9.57962 0.631282 9.74372C0.795376 9.90781 1.01794 10 1.25 10Z" fill="#100F0D"/>
<path d="M7.375 31.875H1.25C1.01794 31.875 0.795376 31.9672 0.631282 32.1313C0.467187 32.2954 0.375 32.5179 0.375 32.75C0.375 32.9821 0.467187 33.2046 0.631282 33.3687C0.795376 33.5328 1.01794 33.625 1.25 33.625H7.375C7.60706 33.625 7.82962 33.5328 7.99372 33.3687C8.15781 33.2046 8.25 32.9821 8.25 32.75C8.25 32.5179 8.15781 32.2954 7.99372 32.1313C7.82962 31.9672 7.60706 31.875 7.375 31.875Z" fill="#100F0D"/>
<path d="M9.125 24H1.25C1.01794 24 0.795376 24.0922 0.631282 24.2563C0.467187 24.4204 0.375 24.6429 0.375 24.875C0.375 25.1071 0.467187 25.3296 0.631282 25.4937C0.795376 25.6578 1.01794 25.75 1.25 25.75H9.125C9.35706 25.75 9.57962 25.6578 9.74372 25.4937C9.90781 25.3296 10 25.1071 10 24.875C10 24.6429 9.90781 24.4204 9.74372 24.2563C9.57962 24.0922 9.35706 24 9.125 24Z" fill="#100F0D"/>
<path d="M1.25 2.125H21.375C21.6071 2.125 21.8296 2.03281 21.9937 1.86872C22.1578 1.70462 22.25 1.48206 22.25 1.25C22.25 1.01794 22.1578 0.795376 21.9937 0.631282C21.8296 0.467187 21.6071 0.375 21.375 0.375H1.25C1.01794 0.375 0.795376 0.467187 0.631282 0.631282C0.467187 0.795376 0.375 1.01794 0.375 1.25C0.375 1.48206 0.467187 1.70462 0.631282 1.86872C0.795376 2.03281 1.01794 2.125 1.25 2.125Z" fill="#100F0D"/>
</svg>
