<svg width="38" height="52" viewBox="0 0 38 52" fill="none" xmlns="http://www.w3.org/2000/svg">
<path d="M36.5 8.5H33.875V5.875C33.875 5.64294 33.7828 5.42038 33.6187 5.25628C33.4546 5.09219 33.2321 5 33 5H15.3595C15.1274 5 14.9049 5.09219 14.7408 5.25628C14.5767 5.42038 14.4845 5.64294 14.4845 5.875C14.4845 6.10706 14.5767 6.32962 14.7408 6.49372C14.9049 6.65781 15.1274 6.75 15.3595 6.75H32.125V46.125H2.375V6.75H5C5.23206 6.75 5.45462 6.65781 5.61872 6.49372C5.78281 6.32962 5.875 6.10706 5.875 5.875C5.875 5.64294 5.78281 5.42038 5.61872 5.25628C5.45462 5.09219 5.23206 5 5 5H1.5C1.26794 5 1.04538 5.09219 0.881282 5.25628C0.717187 5.42038 0.625 5.64294 0.625 5.875V47C0.625 47.2321 0.717187 47.4546 0.881282 47.6187C1.04538 47.7828 1.26794 47.875 1.5 47.875H4.125V50.5C4.125 50.7321 4.21719 50.9546 4.38128 51.1187C4.54538 51.2828 4.76794 51.375 5 51.375H36.5C36.7321 51.375 36.9546 51.2828 37.1187 51.1187C37.2828 50.9546 37.375 50.7321 37.375 50.5V9.375C37.375 9.14294 37.2828 8.92038 37.1187 8.75628C36.9546 8.59219 36.7321 8.5 36.5 8.5ZM35.625 49.625H5.875V47.875H33C33.2321 47.875 33.4546 47.7828 33.6187 47.6187C33.7828 47.4546 33.875 47.2321 33.875 47V10.25H35.625V49.625Z" fill="#100F0D"/>
<path d="M10.25 9.375C9.78601 9.37454 9.34116 9.19001 9.01307 8.86193C8.68499 8.53384 8.50046 8.08899 8.5 7.625C8.5 7.39294 8.40781 7.17038 8.24372 7.00628C8.07962 6.84219 7.85706 6.75 7.625 6.75C7.39294 6.75 7.17038 6.84219 7.00628 7.00628C6.84219 7.17038 6.75 7.39294 6.75 7.625C6.75 8.55326 7.11875 9.4435 7.77513 10.0999C8.4315 10.7563 9.32174 11.125 10.25 11.125C11.1783 11.125 12.0685 10.7563 12.7249 10.0999C13.3813 9.4435 13.75 8.55326 13.75 7.625V4.125C13.75 3.19674 13.3813 2.3065 12.7249 1.65013C12.0685 0.993749 11.1783 0.625 10.25 0.625C9.32174 0.625 8.4315 0.993749 7.77513 1.65013C7.11875 2.3065 6.75 3.19674 6.75 4.125C6.75 4.35706 6.84219 4.57962 7.00628 4.74372C7.17038 4.90781 7.39294 5 7.625 5C7.85706 5 8.07962 4.90781 8.24372 4.74372C8.40781 4.57962 8.5 4.35706 8.5 4.125C8.5 3.66087 8.68437 3.21575 9.01256 2.88756C9.34075 2.55937 9.78587 2.375 10.25 2.375C10.7141 2.375 11.1592 2.55937 11.4874 2.88756C11.8156 3.21575 12 3.66087 12 4.125V7.625C11.9995 8.08899 11.815 8.53384 11.4869 8.86193C11.1588 9.19001 10.714 9.37454 10.25 9.375Z" fill="#100F0D"/>
<path d="M6.75 16.375H27.75C27.9821 16.375 28.2046 16.2828 28.3687 16.1187C28.5328 15.9546 28.625 15.7321 28.625 15.5C28.625 15.2679 28.5328 15.0454 28.3687 14.8813C28.2046 14.7172 27.9821 14.625 27.75 14.625H6.75C6.51794 14.625 6.29538 14.7172 6.13128 14.8813C5.96719 15.0454 5.875 15.2679 5.875 15.5C5.875 15.7321 5.96719 15.9546 6.13128 16.1187C6.29538 16.2828 6.51794 16.375 6.75 16.375Z" fill="#100F0D"/>
<path d="M27.75 19.875H6.75C6.51794 19.875 6.29538 19.9672 6.13128 20.1313C5.96719 20.2954 5.875 20.5179 5.875 20.75C5.875 20.9821 5.96719 21.2046 6.13128 21.3687C6.29538 21.5328 6.51794 21.625 6.75 21.625H27.75C27.9821 21.625 28.2046 21.5328 28.3687 21.3687C28.5328 21.2046 28.625 20.9821 28.625 20.75C28.625 20.5179 28.5328 20.2954 28.3687 20.1313C28.2046 19.9672 27.9821 19.875 27.75 19.875Z" fill="#100F0D"/>
<path d="M27.75 25.125H6.75C6.51794 25.125 6.29538 25.2172 6.13128 25.3813C5.96719 25.5454 5.875 25.7679 5.875 26C5.875 26.2321 5.96719 26.4546 6.13128 26.6187C6.29538 26.7828 6.51794 26.875 6.75 26.875H27.75C27.9821 26.875 28.2046 26.7828 28.3687 26.6187C28.5328 26.4546 28.625 26.2321 28.625 26C28.625 25.7679 28.5328 25.5454 28.3687 25.3813C28.2046 25.2172 27.9821 25.125 27.75 25.125Z" fill="#100F0D"/>
<path d="M27.75 30.375H6.75C6.51794 30.375 6.29538 30.4672 6.13128 30.6313C5.96719 30.7954 5.875 31.0179 5.875 31.25C5.875 31.4821 5.96719 31.7046 6.13128 31.8687C6.29538 32.0328 6.51794 32.125 6.75 32.125H27.75C27.9821 32.125 28.2046 32.0328 28.3687 31.8687C28.5328 31.7046 28.625 31.4821 28.625 31.25C28.625 31.0179 28.5328 30.7954 28.3687 30.6313C28.2046 30.4672 27.9821 30.375 27.75 30.375Z" fill="#100F0D"/>
<path d="M27.75 35.625H6.75C6.51794 35.625 6.29538 35.7172 6.13128 35.8813C5.96719 36.0454 5.875 36.2679 5.875 36.5C5.875 36.7321 5.96719 36.9546 6.13128 37.1187C6.29538 37.2828 6.51794 37.375 6.75 37.375H27.75C27.9821 37.375 28.2046 37.2828 28.3687 37.1187C28.5328 36.9546 28.625 36.7321 28.625 36.5C28.625 36.2679 28.5328 36.0454 28.3687 35.8813C28.2046 35.7172 27.9821 35.625 27.75 35.625Z" fill="#100F0D"/>
<path d="M27.75 40.875H6.75C6.51794 40.875 6.29538 40.9672 6.13128 41.1313C5.96719 41.2954 5.875 41.5179 5.875 41.75C5.875 41.9821 5.96719 42.2046 6.13128 42.3687C6.29538 42.5328 6.51794 42.625 6.75 42.625H27.75C27.9821 42.625 28.2046 42.5328 28.3687 42.3687C28.5328 42.2046 28.625 41.9821 28.625 41.75C28.625 41.5179 28.5328 41.2954 28.3687 41.1313C28.2046 40.9672 27.9821 40.875 27.75 40.875Z" fill="#100F0D"/>
</svg>
