<svg width="64" height="64" viewBox="0 0 64 64" fill="none" xmlns="http://www.w3.org/2000/svg">
<g clip-path="url(#clip0_1_421)">
<path d="M31 21.8501V23.9201C29.76 24.0501 28.71 24.4501 27.89 25.1301C26.83 26.0001 26.3 27.0801 26.3 28.3501C26.3 29.6501 26.79 30.6701 27.75 31.3901C28.65 32.0601 29.97 32.5801 31.79 32.9701C33.68 33.3801 34.61 33.8601 35.06 34.2001C35.51 34.5401 35.71 34.9801 35.71 35.6401C35.71 36.3101 35.44 36.8301 34.85 37.3201C34.19 37.8601 33.26 38.1301 32.08 38.1301C30.81 38.1301 29.83 37.8401 29.15 37.2601C28.61 36.8001 28.34 36.2901 28.3 35.6601C28.27 35.1101 27.78 34.6901 27.24 34.7201C26.69 34.7501 26.27 35.2201 26.3 35.7801C26.37 36.9601 26.89 37.9801 27.85 38.7901C28.67 39.4901 29.74 39.9101 31 40.0601V42.1401C31 42.6901 31.45 43.1401 32 43.1401C32.55 43.1401 33 42.6901 33 42.1401V40.0701C34.24 39.9401 35.29 39.5401 36.11 38.8601C37.17 37.9901 37.7 36.9101 37.7 35.6401C37.7 34.3401 37.21 33.3201 36.25 32.6001C35.35 31.9301 34.03 31.4101 32.21 31.0201C30.32 30.6101 29.39 30.1301 28.94 29.7901C28.49 29.4501 28.29 29.0101 28.29 28.3501C28.29 27.6801 28.56 27.1601 29.15 26.6701C29.81 26.1301 30.74 25.8601 31.92 25.8601C33.19 25.8601 34.17 26.1501 34.85 26.7301C35.39 27.1901 35.66 27.7001 35.7 28.3301C35.73 28.8801 36.21 29.3001 36.76 29.2701C37.31 29.2401 37.73 28.7701 37.7 28.2101C37.63 27.0301 37.11 26.0101 36.15 25.2001C35.33 24.5001 34.26 24.0801 33 23.9301V21.8501C33 21.3001 32.55 20.8501 32 20.8501C31.45 20.8501 31 21.3001 31 21.8501Z" fill="#4AA0DE"/>
<path d="M15.96 32C15.96 40.85 23.16 48.04 32 48.04C40.84 48.04 48.04 40.85 48.04 32C48.04 23.15 40.85 15.96 32 15.96C23.15 15.96 15.96 23.15 15.96 32ZM46.04 32C46.04 39.74 39.74 46.04 32 46.04C24.26 46.04 17.96 39.74 17.96 32C17.96 24.26 24.26 17.96 32 17.96C39.74 17.96 46.04 24.26 46.04 32Z" fill="#4AA0DE"/>
<path d="M7.51997 26.12C7.60997 26.15 7.69997 26.16 7.78997 26.16C8.22997 26.16 8.62997 25.87 8.74997 25.43C11.01 17.4 17.4 11.01 25.43 8.75003C25.96 8.60003 26.27 8.05003 26.12 7.52003C25.97 6.99003 25.41 6.68003 24.89 6.83003C16.19 9.28003 9.26997 16.2 6.82997 24.89C6.67997 25.42 6.98997 25.97 7.51997 26.12Z" fill="#4AA0DE"/>
<path d="M25.43 55.2501C17.4 52.9901 11.01 46.6001 8.74997 38.5701C8.59997 38.0401 8.03997 37.7301 7.51997 37.8801C6.98997 38.0301 6.67997 38.5801 6.82997 39.1101C9.27997 47.8101 16.2 54.7301 24.89 57.1701C24.98 57.2001 25.07 57.2101 25.16 57.2101C25.6 57.2101 26 56.9201 26.12 56.4801C26.27 55.9501 25.96 55.4001 25.43 55.2501Z" fill="#4AA0DE"/>
<path d="M56.48 37.8801C55.96 37.7301 55.4 38.0401 55.25 38.5701C52.99 46.6001 46.6 52.9901 38.57 55.2501C38.04 55.4001 37.73 55.9501 37.88 56.4801C38 56.9201 38.41 57.2101 38.84 57.2101C38.93 57.2101 39.02 57.2001 39.11 57.1701C47.81 54.7201 54.73 47.8001 57.17 39.1101C57.32 38.5801 57.01 38.0301 56.48 37.8801Z" fill="#4AA0DE"/>
<path d="M38.57 8.75003C46.6 11.01 52.99 17.4 55.25 25.43C55.37 25.87 55.78 26.16 56.21 26.16C56.3 26.16 56.39 26.15 56.48 26.12C57.01 25.97 57.32 25.42 57.17 24.89C54.72 16.19 47.8 9.27003 39.11 6.83003C38.59 6.68003 38.03 6.99003 37.88 7.52003C37.73 8.05003 38.04 8.60003 38.57 8.75003Z" fill="#4AA0DE"/>
<path d="M11.69 32C11.69 31.45 11.24 31 10.69 31H3C2.45 31 2 31.45 2 32C2 32.55 2.45 33 3 33H10.69C11.24 33 11.69 32.55 11.69 32Z" fill="#4AA0DE"/>
<path d="M61 31H53.31C52.76 31 52.31 31.45 52.31 32C52.31 32.55 52.76 33 53.31 33H61C61.55 33 62 32.55 62 32C62 31.45 61.55 31 61 31Z" fill="#4AA0DE"/>
<path d="M32 11.69C32.55 11.69 33 11.24 33 10.69V3C33 2.45 32.55 2 32 2C31.45 2 31 2.45 31 3V10.69C31 11.24 31.45 11.69 32 11.69Z" fill="#4AA0DE"/>
<path d="M32 52.3101C31.45 52.3101 31 52.7601 31 53.3101V61.0001C31 61.5501 31.45 62.0001 32 62.0001C32.55 62.0001 33 61.5501 33 61.0001V53.3101C33 52.7601 32.55 52.3101 32 52.3101Z" fill="#4AA0DE"/>
</g>
<defs>
<clipPath id="clip0_1_421">
<rect width="64" height="64" fill="white"/>
</clipPath>
</defs>
</svg>
