<svg width="26" height="32" viewBox="0 0 26 32" fill="none" xmlns="http://www.w3.org/2000/svg">
<path d="M25 13.3333C25 22.6666 13 30.6666 13 30.6666C13 30.6666 1 22.6666 1 13.3333C1 10.1507 2.26428 7.09841 4.51472 4.84797C6.76516 2.59753 9.8174 1.33325 13 1.33325C16.1826 1.33325 19.2348 2.59753 21.4853 4.84797C23.7357 7.09841 25 10.1507 25 13.3333Z" stroke="#4AA0DE" stroke-linecap="round" stroke-linejoin="round"/>
<path d="M13 17.3333C15.2091 17.3333 17 15.5424 17 13.3333C17 11.1241 15.2091 9.33325 13 9.33325C10.7909 9.33325 9 11.1241 9 13.3333C9 15.5424 10.7909 17.3333 13 17.3333Z" stroke="#4AA0DE" stroke-linecap="round" stroke-linejoin="round"/>
</svg>
