<svg width="64" height="64" viewBox="0 0 64 64" fill="none" xmlns="http://www.w3.org/2000/svg">
<g clip-path="url(#clip0_1_457)">
<path d="M32 33.77C36.19 33.77 39.59 30.4 39.59 26.25C39.59 22.1 36.18 18.73 32 18.73C27.82 18.73 24.41 22.1 24.41 26.25C24.41 30.4 27.81 33.77 32 33.77ZM32 20.73C35.08 20.73 37.59 23.21 37.59 26.25C37.59 29.29 35.08 31.77 32 31.77C28.92 31.77 26.41 29.29 26.41 26.25C26.41 23.21 28.92 20.73 32 20.73Z" fill="#4AA0DE"/>
<path d="M13.95 30.29C18.14 30.29 21.54 26.92 21.54 22.77C21.54 18.62 18.13 15.25 13.95 15.25C9.76999 15.25 6.35999 18.62 6.35999 22.77C6.35999 26.92 9.76999 30.29 13.95 30.29ZM13.95 17.25C17.03 17.25 19.54 19.73 19.54 22.77C19.54 25.81 17.03 28.29 13.95 28.29C10.87 28.29 8.35998 25.81 8.35998 22.77C8.35998 19.72 10.87 17.25 13.95 17.25Z" fill="#4AA0DE"/>
<path d="M50.05 30.29C54.24 30.29 57.64 26.92 57.64 22.77C57.64 18.62 54.23 15.25 50.05 15.25C45.87 15.25 42.46 18.62 42.46 22.77C42.46 26.92 45.86 30.29 50.05 30.29ZM50.05 17.25C53.13 17.25 55.64 19.73 55.64 22.77C55.64 25.81 53.13 28.29 50.05 28.29C46.97 28.29 44.46 25.81 44.46 22.77C44.45 19.72 46.96 17.25 50.05 17.25Z" fill="#4AA0DE"/>
<path d="M50.05 31.5601C45.62 31.5601 41.65 33.9501 39.58 37.7501C37.52 36.0601 34.88 35.0401 32.02 35.0401H32C29.13 35.0401 26.5 36.0601 24.44 37.7501C22.36 33.9501 18.39 31.5601 13.97 31.5601C7.36 31.5601 2 36.9101 2 43.5001V44.2701C2 44.8201 2.45 45.2701 3 45.2701H20.18C20.1 45.8301 20.04 46.4001 20.04 46.9901V47.7501C20.04 48.3001 20.49 48.7501 21.04 48.7501H42.95C43.5 48.7501 43.95 48.3001 43.95 47.7501V46.9901C43.95 46.4001 43.89 45.8301 43.81 45.2701H61C61.55 45.2701 62 44.8201 62 44.2701V43.5001C62 36.9101 56.64 31.5601 50.05 31.5601ZM4 43.2701C4.12 37.8901 8.54 33.5601 13.95 33.5601C17.83 33.5601 21.29 35.7601 22.93 39.2201C21.92 40.4001 21.13 41.7701 20.64 43.2701H4ZM22.05 46.7501C22.18 41.3701 26.59 37.0401 31.99 37.0401H32.01C37.42 37.0401 41.83 41.3701 41.95 46.7501H22.05ZM43.36 43.2701C42.87 41.7601 42.08 40.3901 41.07 39.2201C42.71 35.7601 46.17 33.5601 50.05 33.5601C55.46 33.5601 59.88 37.9001 60 43.2701H43.36Z" fill="#4AA0DE"/>
</g>
<defs>
<clipPath id="clip0_1_457">
<rect width="64" height="64" fill="white"/>
</clipPath>
</defs>
</svg>
