<svg width="64" height="64" viewBox="0 0 64 64" fill="none" xmlns="http://www.w3.org/2000/svg">
<g clip-path="url(#clip0_1_440)">
<path d="M46.2 23.65C43.33 18.77 38.05 15.48 32 15.48C22.91 15.48 15.51 22.89 15.51 32C15.51 41.11 22.91 48.52 32 48.52C38.05 48.52 43.34 45.23 46.2 40.35C46.25 40.28 46.31 40.2 46.34 40.12C47.7 37.72 48.48 34.95 48.48 32C48.48 29.05 47.69 26.28 46.34 23.88C46.31 23.8 46.26 23.73 46.2 23.65ZM43.53 23.24H38.29C37.73 21.14 36.97 19.38 36.05 18.07C39.07 18.95 41.67 20.79 43.53 23.24ZM26.67 31C26.73 28.89 26.95 26.95 27.3 25.24H36.69C37.04 26.95 37.27 28.89 37.32 31H26.67ZM37.33 33C37.27 35.11 37.05 37.05 36.7 38.76H27.31C26.96 37.05 26.73 35.11 26.68 33H37.33ZM32 17.48C33.52 17.48 35.15 19.65 36.2 23.24H27.8C28.85 19.65 30.48 17.48 32 17.48ZM27.95 18.07C27.03 19.38 26.27 21.14 25.71 23.24H20.47C22.33 20.79 24.93 18.95 27.95 18.07ZM19.19 25.24H25.26C24.93 27 24.73 28.94 24.68 31H17.57C17.7 28.93 18.27 26.98 19.19 25.24ZM19.19 38.76C18.27 37.02 17.71 35.07 17.56 33H24.67C24.72 35.06 24.92 37 25.25 38.76H19.19ZM20.47 40.76H25.71C26.27 42.86 27.03 44.62 27.95 45.93C24.93 45.05 22.33 43.21 20.47 40.76ZM32 46.52C30.48 46.52 28.85 44.35 27.8 40.76H36.2C35.15 44.35 33.52 46.52 32 46.52ZM36.05 45.93C36.97 44.62 37.73 42.86 38.29 40.76H43.53C41.67 43.21 39.07 45.05 36.05 45.93ZM44.81 38.76H38.74C39.07 37 39.27 35.06 39.32 33H46.43C46.3 35.07 45.73 37.02 44.81 38.76ZM39.33 31C39.28 28.94 39.08 27 38.75 25.24H44.82C45.74 26.98 46.3 28.93 46.45 31H39.33Z" fill="#4AA0DE"/>
<path d="M54.74 39.83V24.17C56.93 23.71 58.58 21.76 58.58 19.42C58.58 16.74 56.41 14.57 53.73 14.57C52.3 14.57 51.03 15.2 50.14 16.19L36.59 8.35C36.75 7.88 36.85 7.38 36.85 6.85C36.85 4.18 34.67 2 32 2C29.33 2 27.15 4.18 27.15 6.85C27.15 7.37 27.25 7.87 27.41 8.34L13.85 16.19C12.96 15.2 11.69 14.57 10.26 14.57C7.59003 14.57 5.41003 16.75 5.41003 19.42C5.41003 21.75 7.06003 23.7 9.26003 24.17V39.82C7.07003 40.28 5.41003 42.23 5.41003 44.57C5.41003 47.25 7.58003 49.42 10.26 49.42C11.69 49.42 12.96 48.79 13.85 47.8L27.41 55.64C27.25 56.12 27.15 56.61 27.15 57.14C27.15 59.82 29.32 61.99 32 61.99C34.68 61.99 36.85 59.81 36.85 57.14C36.85 56.61 36.74 56.11 36.59 55.64L50.16 47.8C51.05 48.79 52.32 49.42 53.75 49.42C56.42 49.42 58.6 47.24 58.6 44.57C58.58 42.24 56.93 40.29 54.74 39.83ZM53.74 16.57C55.31 16.57 56.59 17.85 56.59 19.42C56.59 20.99 55.31 22.27 53.74 22.27C52.17 22.27 50.89 20.99 50.89 19.42C50.89 17.85 52.17 16.57 53.74 16.57ZM32 4C33.57 4 34.85 5.28 34.85 6.85C34.85 8.42 33.57 9.71 32 9.71C30.43 9.71 29.15 8.43 29.15 6.86C29.15 5.29 30.43 4 32 4ZM7.42003 19.43C7.42003 17.86 8.70003 16.58 10.27 16.58C11.84 16.58 13.12 17.86 13.12 19.43C13.12 21 11.84 22.28 10.27 22.28C8.70003 22.28 7.42003 21 7.42003 19.43ZM10.26 47.43C8.69003 47.43 7.41003 46.15 7.41003 44.58C7.41003 43.01 8.68003 41.73 10.25 41.73C10.25 41.73 10.25 41.73 10.26 41.73C11.83 41.73 13.1 43.01 13.1 44.58C13.11 46.15 11.83 47.43 10.26 47.43ZM32 60C30.43 60 29.15 58.72 29.15 57.15C29.15 55.58 30.43 54.3 32 54.3C33.57 54.3 34.85 55.58 34.85 57.15C34.85 58.72 33.57 60 32 60ZM48.89 44.57C48.89 45.1 49 45.6 49.15 46.07L35.58 53.91C34.69 52.92 33.42 52.29 31.99 52.29C30.56 52.29 29.29 52.92 28.4 53.91L14.84 46.07C15 45.59 15.1 45.1 15.1 44.57C15.1 42.24 13.45 40.29 11.25 39.82V24.17C13.44 23.71 15.1 21.76 15.1 19.42C15.1 18.89 14.99 18.4 14.84 17.92L28.4 10.07C29.29 11.06 30.56 11.69 31.99 11.69C33.42 11.69 34.69 11.06 35.58 10.07L49.14 17.91C48.98 18.38 48.88 18.88 48.88 19.41C48.88 21.74 50.53 23.7 52.73 24.16V39.81C50.55 40.29 48.89 42.24 48.89 44.57ZM53.74 47.43C52.17 47.43 50.89 46.15 50.89 44.58C50.89 43.01 52.17 41.73 53.73 41.73C53.73 41.73 53.73 41.73 53.74 41.73C55.31 41.73 56.58 43.01 56.58 44.58C56.58 46.15 55.31 47.43 53.74 47.43Z" fill="#4AA0DE"/>
</g>
<defs>
<clipPath id="clip0_1_440">
<rect width="64" height="64" fill="white"/>
</clipPath>
</defs>
</svg>
