<svg width="54" height="60" viewBox="0 0 54 60" fill="none" xmlns="http://www.w3.org/2000/svg">
<path d="M18.3299 21.7C24.4099 21.7 29.3499 16.83 29.3499 10.85C29.3499 4.87 24.4099 0 18.3299 0C12.2499 0 7.30994 4.87 7.30994 10.85C7.30994 16.83 12.2599 21.7 18.3299 21.7ZM18.3299 2C23.2999 2 27.3499 5.97 27.3499 10.85C27.3499 15.73 23.2999 19.7 18.3299 19.7C13.3599 19.7 9.30994 15.73 9.30994 10.85C9.30994 5.97 13.3599 2 18.3299 2Z" fill="#4AA0DE"/>
<path d="M36.5699 26.6599C33.9199 26.6599 31.4299 27.2899 29.1999 28.3799C26.1299 25.9699 22.3199 24.6299 18.3999 24.6299H18.2699C8.57994 24.6299 0.689941 32.5199 0.689941 42.2199V43.3199C0.689941 43.8699 1.13994 44.3199 1.68994 44.3199H19.8799C20.3999 53.0499 27.6799 59.9999 36.5699 59.9999C45.7999 59.9999 53.31 52.5199 53.31 43.3299C53.31 34.1399 45.7999 26.6599 36.5699 26.6599ZM2.68994 42.3199V42.2199C2.68994 33.6199 9.67994 26.6299 18.2699 26.6299H18.3999C21.5999 26.6299 24.7099 27.6199 27.3099 29.4499C23.0699 32.2699 20.1999 36.9599 19.8799 42.3199H2.68994ZM36.5699 57.9999C28.4399 57.9999 21.8299 51.4199 21.8299 43.3299C21.8299 35.2399 28.4399 28.6599 36.5699 28.6599C44.6999 28.6599 51.31 35.2399 51.31 43.3299C51.31 51.4199 44.6999 57.9999 36.5699 57.9999Z" fill="#4AA0DE"/>
<path d="M45.11 39.33L40.41 41.42L37.34 37.69C36.96 37.23 36.1799 37.23 35.7999 37.69L32.7299 41.42L28.0299 39.33C27.6899 39.18 27.29 39.23 27 39.46C26.71 39.69 26.57 40.07 26.64 40.43L28.18 48.53C28.27 49 28.68 49.34 29.16 49.34H43.9799C44.4599 49.34 44.8699 49 44.9599 48.53L46.5 40.43C46.57 40.06 46.43 39.69 46.1399 39.46C45.8499 39.23 45.45 39.18 45.11 39.33ZM43.15 47.34H29.99L28.9599 41.93L32.61 43.55C33.02 43.73 33.5 43.62 33.79 43.27L36.57 39.89L39.3499 43.27C39.6399 43.62 40.1199 43.73 40.5299 43.55L44.18 41.93L43.15 47.34Z" fill="#4AA0DE"/>
</svg>
