<svg width="48" height="48" viewBox="0 0 48 48" fill="none" xmlns="http://www.w3.org/2000/svg">
<path d="M47.6162 20.4563C47.6107 20.3962 47.5988 20.337 47.5806 20.2795C47.5608 20.1723 47.5169 20.071 47.4523 19.9831C47.3877 19.8953 47.304 19.8233 47.2075 19.7724C47.1572 19.7375 47.1032 19.7082 47.0464 19.6849C47.0321 19.6797 47.0221 19.6682 47.0072 19.6636L26.4762 13.3462C26.9123 12.9099 27.2253 12.3662 27.3834 11.77C27.5415 11.1738 27.5391 10.5464 27.3765 9.95138C27.2139 9.35639 26.8969 8.81497 26.4576 8.38202C26.0183 7.94907 25.4723 7.64 24.875 7.48612V5.625C26.0349 5.62363 27.1469 5.16226 27.9671 4.34208C28.7873 3.52191 29.2486 2.4099 29.25 1.25C29.25 1.01794 29.1578 0.795376 28.9937 0.631282C28.8296 0.467187 28.6071 0.375 28.375 0.375H19.625C19.3929 0.375 19.1704 0.467187 19.0063 0.631282C18.8422 0.795376 18.75 1.01794 18.75 1.25C18.7514 2.4099 19.2127 3.52191 20.0329 4.34208C20.8531 5.16226 21.9651 5.62363 23.125 5.625V8.25C23.125 8.48206 23.2172 8.70462 23.3813 8.86872C23.5454 9.03281 23.7679 9.125 24 9.125C24.3461 9.125 24.6845 9.22764 24.9722 9.41993C25.26 9.61222 25.4843 9.88553 25.6168 10.2053C25.7492 10.5251 25.7839 10.8769 25.7164 11.2164C25.6488 11.5559 25.4822 11.8677 25.2374 12.1124C24.9927 12.3572 24.6809 12.5239 24.3414 12.5914C24.0019 12.6589 23.6501 12.6242 23.3303 12.4918C23.0105 12.3593 22.7372 12.135 22.5449 11.8472C22.3526 11.5595 22.25 11.2211 22.25 10.875C22.25 10.6429 22.1578 10.4204 21.9937 10.2563C21.8296 10.0922 21.6071 10 21.375 10C21.1429 10 20.9204 10.0922 20.7563 10.2563C20.5922 10.4204 20.5 10.6429 20.5 10.875C20.4997 11.334 20.59 11.7885 20.7657 12.2126C20.9413 12.6366 21.1989 13.0219 21.5237 13.3462L0.992567 19.6637C0.977692 19.6683 0.967717 19.6798 0.953367 19.685C0.896644 19.7082 0.842628 19.7376 0.792279 19.7725C0.746702 19.7976 0.703478 19.8267 0.663129 19.8596C0.535931 19.9674 0.449775 20.1157 0.419179 20.2796C0.401017 20.3371 0.389078 20.3963 0.383567 20.4563C0.382779 20.4716 0.374817 20.4845 0.374817 20.5001V46.75C0.374817 46.9821 0.467004 47.2046 0.631098 47.3687C0.795193 47.5328 1.01775 47.625 1.24982 47.625H46.75C46.9821 47.625 47.2046 47.5328 47.3687 47.3687C47.5328 47.2046 47.625 46.9821 47.625 46.75V20.5C47.625 20.4844 47.6169 20.4716 47.6162 20.4563ZM20.65 2.125H27.35C27.1685 2.63646 26.8332 3.07922 26.3901 3.39255C25.9469 3.70587 25.4177 3.87439 24.875 3.875H23.125C22.5823 3.87439 22.0531 3.70587 21.6099 3.39255C21.1668 3.07922 20.8315 2.63646 20.65 2.125ZM40.9307 19.625H7.06927L24 14.4152L40.9307 19.625ZM45.875 45.875H2.12499V21.375H45.875V45.875Z" fill="#100F0D"/>
<path d="M5.625 43.25C5.85706 43.25 6.07962 43.1578 6.24372 42.9937C6.40781 42.8296 6.5 42.6071 6.5 42.375V24.875C6.5 24.6429 6.40781 24.4204 6.24372 24.2563C6.07962 24.0922 5.85706 24 5.625 24C5.39294 24 5.17038 24.0922 5.00628 24.2563C4.84219 24.4204 4.75 24.6429 4.75 24.875V42.375C4.75 42.6071 4.84219 42.8296 5.00628 42.9937C5.17038 43.1578 5.39294 43.25 5.625 43.25Z" fill="#100F0D"/>
<path d="M10.875 43.25C11.1071 43.25 11.3296 43.1578 11.4937 42.9937C11.6578 42.8296 11.75 42.6071 11.75 42.375V24.875C11.75 24.6429 11.6578 24.4204 11.4937 24.2563C11.3296 24.0922 11.1071 24 10.875 24C10.6429 24 10.4204 24.0922 10.2563 24.2563C10.0922 24.4204 10 24.6429 10 24.875V42.375C10 42.6071 10.0922 42.8296 10.2563 42.9937C10.4204 43.1578 10.6429 43.25 10.875 43.25Z" fill="#100F0D"/>
<path d="M16.125 43.25C16.3571 43.25 16.5796 43.1578 16.7437 42.9937C16.9078 42.8296 17 42.6071 17 42.375V24.875C17 24.6429 16.9078 24.4204 16.7437 24.2563C16.5796 24.0922 16.3571 24 16.125 24C15.8929 24 15.6704 24.0922 15.5063 24.2563C15.3422 24.4204 15.25 24.6429 15.25 24.875V42.375C15.25 42.6071 15.3422 42.8296 15.5063 42.9937C15.6704 43.1578 15.8929 43.25 16.125 43.25Z" fill="#100F0D"/>
<path d="M21.375 43.25C21.6071 43.25 21.8296 43.1578 21.9937 42.9937C22.1578 42.8296 22.25 42.6071 22.25 42.375V24.875C22.25 24.6429 22.1578 24.4204 21.9937 24.2563C21.8296 24.0922 21.6071 24 21.375 24C21.1429 24 20.9204 24.0922 20.7563 24.2563C20.5922 24.4204 20.5 24.6429 20.5 24.875V42.375C20.5 42.6071 20.5922 42.8296 20.7563 42.9937C20.9204 43.1578 21.1429 43.25 21.375 43.25Z" fill="#100F0D"/>
<path d="M26.625 43.25C26.8571 43.25 27.0796 43.1578 27.2437 42.9937C27.4078 42.8296 27.5 42.6071 27.5 42.375V24.875C27.5 24.6429 27.4078 24.4204 27.2437 24.2563C27.0796 24.0922 26.8571 24 26.625 24C26.3929 24 26.1704 24.0922 26.0063 24.2563C25.8422 24.4204 25.75 24.6429 25.75 24.875V42.375C25.75 42.6071 25.8422 42.8296 26.0063 42.9937C26.1704 43.1578 26.3929 43.25 26.625 43.25Z" fill="#100F0D"/>
<path d="M31.875 43.25C32.1071 43.25 32.3296 43.1578 32.4937 42.9937C32.6578 42.8296 32.75 42.6071 32.75 42.375V24.875C32.75 24.6429 32.6578 24.4204 32.4937 24.2563C32.3296 24.0922 32.1071 24 31.875 24C31.6429 24 31.4204 24.0922 31.2563 24.2563C31.0922 24.4204 31 24.6429 31 24.875V42.375C31 42.6071 31.0922 42.8296 31.2563 42.9937C31.4204 43.1578 31.6429 43.25 31.875 43.25Z" fill="#100F0D"/>
<path d="M37.125 43.25C37.3571 43.25 37.5796 43.1578 37.7437 42.9937C37.9078 42.8296 38 42.6071 38 42.375V24.875C38 24.6429 37.9078 24.4204 37.7437 24.2563C37.5796 24.0922 37.3571 24 37.125 24C36.8929 24 36.6704 24.0922 36.5063 24.2563C36.3422 24.4204 36.25 24.6429 36.25 24.875V42.375C36.25 42.6071 36.3422 42.8296 36.5063 42.9937C36.6704 43.1578 36.8929 43.25 37.125 43.25Z" fill="#100F0D"/>
<path d="M42.375 43.25C42.6071 43.25 42.8296 43.1578 42.9937 42.9937C43.1578 42.8296 43.25 42.6071 43.25 42.375V24.875C43.25 24.6429 43.1578 24.4204 42.9937 24.2563C42.8296 24.0922 42.6071 24 42.375 24C42.1429 24 41.9204 24.0922 41.7563 24.2563C41.5922 24.4204 41.5 24.6429 41.5 24.875V42.375C41.5 42.6071 41.5922 42.8296 41.7563 42.9937C41.9204 43.1578 42.1429 43.25 42.375 43.25Z" fill="#100F0D"/>
</svg>
