<svg width="64" height="64" viewBox="0 0 64 64" fill="none" xmlns="http://www.w3.org/2000/svg">
<g clip-path="url(#clip0_1_450)">
<path d="M57.93 27.45C57.39 24.57 56.37 21.86 54.92 19.42C54.86 19.25 54.77 19.11 54.65 18.99C50 11.47 41.48 6.46997 32 6.46997C19.29 6.46997 8.3 15.44 6.07 27.45C3.78 27.73 2 29.65 2 32C2 34.35 3.78 36.27 6.07 36.55C8.31 48.56 19.3 57.53 32 57.53C41.48 57.53 49.99 52.53 54.64 45.01C54.77 44.89 54.86 44.75 54.91 44.58C56.36 42.13 57.38 39.43 57.92 36.55C60.22 36.27 62 34.35 62 32C62 29.65 60.22 27.73 57.93 27.45ZM55.95 27.62C55.86 27.65 55.78 27.69 55.69 27.73C55.62 27.76 55.55 27.78 55.49 27.81C55.29 27.9 55.1 28 54.91 28.12C54.86 28.15 54.8 28.18 54.75 28.22C54.52 28.38 54.3 28.55 54.11 28.75C54.11 28.75 54.11 28.76 54.1 28.76C53.91 28.95 53.74 29.16 53.59 29.38C53.54 29.45 53.5 29.52 53.46 29.59C53.36 29.76 53.26 29.93 53.18 30.1C53.14 30.18 53.11 30.26 53.08 30.34C53 30.54 52.94 30.74 52.89 30.94C52.88 30.96 52.87 30.98 52.87 31H43.38C43.34 28.57 43.16 26.22 42.83 23.96C44.18 23.38 45.19 22.18 45.52 20.73H53.36C54.57 22.85 55.47 25.16 55.95 27.62ZM20.37 44.27C20.37 42.84 21.55 41.67 22.99 41.67C24.44 41.67 25.61 42.84 25.61 44.27C25.61 45.7 24.43 46.87 22.99 46.87C21.55 46.87 20.38 45.7 20.37 44.27ZM23.14 39.68C22.83 37.54 22.66 35.3 22.62 33H41.37C41.31 36.62 40.91 40.13 40.19 43.27H27.5C27.05 41.26 25.28 39.75 23.14 39.68ZM22.63 31C22.69 27.38 23.09 23.87 23.81 20.73H36.5C36.95 22.74 38.72 24.25 40.86 24.32C41.17 26.46 41.34 28.7 41.38 31H22.63ZM41.01 22.33C39.56 22.33 38.39 21.16 38.39 19.73C38.39 18.3 39.57 17.13 41.01 17.13C42.45 17.13 43.63 18.29 43.63 19.72V19.73V19.74C43.62 21.17 42.45 22.33 41.01 22.33ZM52.08 18.73H45.51C45.05 16.68 43.21 15.13 41.01 15.13C40.88 15.13 40.76 15.16 40.64 15.17C39.64 12.56 38.41 10.48 37.05 9.00997C43.2 10.28 48.57 13.82 52.08 18.73ZM32 8.46997C34.45 8.46997 36.93 11.18 38.72 15.76C37.61 16.39 36.79 17.46 36.5 18.73H24.3C26.06 12.46 29.02 8.46997 32 8.46997ZM26.94 9.00997C25 11.1 23.36 14.43 22.23 18.73H11.92C15.42 13.83 20.79 10.29 26.94 9.00997ZM10.64 20.73H21.77C21.08 23.9 20.69 27.4 20.63 31H11.13C11.13 30.98 11.12 30.96 11.11 30.94C11.06 30.73 11 30.53 10.92 30.34C10.89 30.26 10.85 30.18 10.82 30.1C10.74 29.92 10.64 29.75 10.54 29.59C10.5 29.52 10.46 29.45 10.41 29.38C10.26 29.16 10.09 28.96 9.91 28.77L9.9 28.76C9.7 28.56 9.49 28.39 9.26 28.23C9.21 28.19 9.15 28.16 9.1 28.13C8.9 28 8.71 27.9 8.52 27.81C8.45 27.78 8.38 27.75 8.31 27.72C8.22 27.69 8.14 27.64 8.05 27.61C8.53 25.16 9.43 22.85 10.64 20.73ZM7.67 34.38C7.64 34.39 7.61 34.4 7.58 34.42C7.46 34.47 7.33 34.51 7.2 34.54C7.16 34.55 7.12 34.55 7.08 34.56C6.93 34.58 6.79 34.6 6.63 34.6C5.18 34.6 4 33.43 4 32C4 30.57 5.18 29.4 6.62 29.4C6.77 29.4 6.91 29.42 7.05 29.44C7.1 29.45 7.15 29.46 7.21 29.47C7.33 29.5 7.45 29.54 7.56 29.58C7.6 29.6 7.64 29.61 7.69 29.63C7.8 29.68 7.91 29.74 8.02 29.81C8.06 29.83 8.09 29.85 8.13 29.88C8.23 29.95 8.32 30.03 8.41 30.11C8.44 30.14 8.48 30.17 8.51 30.2C8.6 30.29 8.67 30.38 8.75 30.48C8.77 30.51 8.8 30.54 8.83 30.58C8.91 30.69 8.97 30.81 9.03 30.94C9.04 30.97 9.06 30.99 9.07 31.02C9.2 31.33 9.27 31.67 9.27 32.02C9.27 32.38 9.2 32.72 9.07 33.03C9.06 33.05 9.05 33.06 9.05 33.08C8.99 33.22 8.92 33.35 8.84 33.47C8.82 33.5 8.8 33.52 8.78 33.54C8.7 33.65 8.62 33.76 8.52 33.85C8.5 33.87 8.47 33.89 8.45 33.91C8.35 34 8.25 34.09 8.14 34.16C8.11 34.18 8.09 34.19 8.06 34.21C7.91 34.26 7.8 34.33 7.67 34.38ZM8.05 36.38C8.14 36.35 8.23 36.3 8.32 36.27C8.38 36.25 8.44 36.22 8.5 36.19C8.71 36.1 8.91 35.99 9.1 35.86C9.14 35.83 9.19 35.81 9.23 35.78C9.69 35.46 10.08 35.07 10.4 34.62C10.44 34.56 10.48 34.49 10.52 34.43C10.63 34.26 10.73 34.08 10.81 33.9C10.84 33.82 10.88 33.75 10.91 33.67C10.99 33.47 11.05 33.26 11.1 33.05C11.1 33.03 11.11 33.01 11.12 33H20.61C20.65 35.43 20.83 37.78 21.16 40.04C19.81 40.62 18.8 41.82 18.47 43.27H10.62C9.43 41.15 8.53 38.84 8.05 36.38ZM11.92 45.27H18.49C18.95 47.32 20.79 48.87 22.99 48.87C23.12 48.87 23.24 48.84 23.37 48.83C24.37 51.44 25.59 53.52 26.96 54.99C20.8 53.72 15.43 50.18 11.92 45.27ZM32 55.53C29.54 55.53 27.06 52.82 25.28 48.24C26.39 47.61 27.21 46.54 27.5 45.27H39.7C37.94 51.54 34.98 55.53 32 55.53ZM37.06 54.99C39 52.9 40.63 49.57 41.77 45.27H52.08C48.58 50.18 43.21 53.71 37.06 54.99ZM53.36 43.27H42.23C42.92 40.1 43.31 36.6 43.37 33H52.87C52.87 33.02 52.88 33.04 52.89 33.05C52.94 33.26 53 33.47 53.08 33.67C53.11 33.75 53.14 33.82 53.18 33.9C53.27 34.09 53.36 34.26 53.47 34.44C53.51 34.5 53.55 34.57 53.59 34.63C53.91 35.08 54.3 35.48 54.76 35.79C54.8 35.82 54.85 35.84 54.89 35.87C55.08 35.99 55.29 36.11 55.5 36.2C55.56 36.23 55.62 36.25 55.68 36.27C55.77 36.31 55.86 36.35 55.95 36.38C55.47 38.84 54.57 41.15 53.36 43.27ZM57.38 34.6C57.23 34.6 57.08 34.58 56.93 34.56C56.89 34.55 56.85 34.55 56.81 34.54C56.68 34.51 56.55 34.47 56.42 34.42C56.39 34.41 56.36 34.4 56.33 34.39C56.2 34.34 56.08 34.27 55.97 34.2C55.94 34.18 55.92 34.17 55.89 34.15C55.78 34.07 55.67 33.99 55.58 33.89C55.56 33.87 55.53 33.85 55.51 33.83C55.41 33.73 55.33 33.63 55.25 33.52C55.23 33.5 55.21 33.47 55.2 33.45C55.12 33.33 55.05 33.2 54.99 33.06C54.98 33.04 54.97 33.03 54.97 33.02C54.84 32.71 54.77 32.37 54.77 32.01C54.77 31.66 54.84 31.32 54.97 31.01C54.98 30.98 55 30.96 55.01 30.93C55.07 30.81 55.13 30.69 55.21 30.57C55.23 30.54 55.26 30.51 55.29 30.47C55.36 30.37 55.44 30.27 55.53 30.18C55.56 30.15 55.59 30.12 55.62 30.1C55.71 30.02 55.8 29.94 55.91 29.87C55.94 29.85 55.98 29.83 56.02 29.81C56.13 29.74 56.23 29.68 56.35 29.63C56.39 29.61 56.43 29.6 56.47 29.58C56.59 29.54 56.7 29.5 56.83 29.47C56.88 29.46 56.93 29.45 56.98 29.44C57.12 29.42 57.26 29.4 57.41 29.4C58.86 29.4 60.03 30.57 60.03 32C60 33.43 58.82 34.6 57.38 34.6Z" fill="#4AA0DE"/>
</g>
<defs>
<clipPath id="clip0_1_450">
<rect width="64" height="64" fill="white"/>
</clipPath>
</defs>
</svg>
